<?xml version="1.0" encoding="UTF-8" standalone="no"?>
<!DOCTYPE svg PUBLIC "-//W3C//DTD SVG 1.1//EN" "http://www.w3.org/Graphics/SVG/1.1/DTD/svg11.dtd">
<!-- Generated by graphviz version 2.40.1 (20161225.0304)
 -->
<!-- Title: G Pages: 1 -->
<svg width="606pt" height="548pt" viewBox="0.00 0.00 605.90 548.00" xmlns="http://www.w3.org/2000/svg" xmlns:xlink="http://www.w3.org/1999/xlink">
<g id="graph0" class="graph" transform="scale(1 1) rotate(0) translate(4 544)">
<title>G</title>
<polygon fill="#ffffff" stroke="transparent" points="-4,4 -4,-544 601.9021,-544 601.9021,4 -4,4"/>
<!-- bebop2_autonomy -->
<g id="node1" class="node">
<title>bebop2_autonomy</title>
<ellipse fill="none" stroke="#000000" cx="82.9189" cy="-522" rx="82.838" ry="18"/>
<text text-anchor="middle" x="82.9189" y="-517.8" font-family="Times,serif" font-size="14.00" fill="#000000">bebop2_autonomy</text>
</g>
<!-- bebop2_controller -->
<g id="node2" class="node">
<title>bebop2_controller</title>
<ellipse fill="none" stroke="#000000" cx="148.9189" cy="-90" rx="81.6673" ry="18"/>
<text text-anchor="middle" x="148.9189" y="-85.8" font-family="Times,serif" font-size="14.00" fill="#000000">bebop2_controller</text>
</g>
<!-- bebop2_autonomy&#45;&gt;bebop2_controller -->
<g id="edge1" class="edge">
<title>bebop2_autonomy-&gt;bebop2_controller</title>
<path fill="none" stroke="#000000" d="M77.0999,-503.8146C73.9189,-476.4983 73.9189,-423.25 73.9189,-378 73.9189,-378 73.9189,-378 73.9189,-234 73.9189,-189.3886 100.4202,-143.4938 122.1267,-115.8552"/>
<polygon fill="#000000" stroke="#000000" points="125.0307,-117.8339 128.6746,-107.8854 119.6221,-113.3902 125.0307,-117.8339"/>
</g>
<!-- apriltag_ros -->
<g id="node3" class="node">
<title>apriltag_ros</title>
<ellipse fill="none" stroke="#000000" cx="206.9189" cy="-450" rx="57.3205" ry="18"/>
<text text-anchor="middle" x="206.9189" y="-445.8" font-family="Times,serif" font-size="14.00" fill="#000000">apriltag_ros</text>
</g>
<!-- bebop2_autonomy&#45;&gt;apriltag_ros -->
<g id="edge2" class="edge">
<title>bebop2_autonomy-&gt;apriltag_ros</title>
<path fill="none" stroke="#000000" d="M111.9914,-505.1192C129.4622,-494.9749 151.8471,-481.9772 170.4913,-471.1515"/>
<polygon fill="#000000" stroke="#000000" points="172.4151,-474.0818 179.3055,-466.0336 168.9001,-468.0283 172.4151,-474.0818"/>
</g>
<!-- bebop2_controller&#45;&gt;bebop2_autonomy -->
<g id="edge12" class="edge">
<title>bebop2_controller-&gt;bebop2_autonomy</title>
<path fill="none" stroke="#000000" d="M140.246,-108.3251C123.8273,-134.5521 91.9189,-185.0486 91.9189,-234 91.9189,-378 91.9189,-378 91.9189,-378 91.9189,-418.124 91.9189,-464.5369 89.7012,-493.5823"/>
<polygon fill="#000000" stroke="#000000" points="86.1907,-493.5306 88.738,-503.8146 93.1598,-494.1867 86.1907,-493.5306"/>
</g>
<!-- rviz -->
<g id="node9" class="node">
<title>rviz</title>
<ellipse fill="none" stroke="#000000" cx="148.9189" cy="-18" rx="27" ry="18"/>
<text text-anchor="middle" x="148.9189" y="-13.8" font-family="Times,serif" font-size="14.00" fill="#000000">rviz</text>
</g>
<!-- bebop2_controller&#45;&gt;rviz -->
<g id="edge11" class="edge">
<title>bebop2_controller-&gt;rviz</title>
<path fill="none" stroke="#000000" d="M148.9189,-71.8314C148.9189,-64.131 148.9189,-54.9743 148.9189,-46.4166"/>
<polygon fill="#000000" stroke="#000000" points="152.419,-46.4132 148.9189,-36.4133 145.419,-46.4133 152.419,-46.4132"/>
</g>
<!-- bebop2_state_estimator_lpf -->
<g id="node4" class="node">
<title>bebop2_state_estimator_lpf</title>
<ellipse fill="none" stroke="#000000" cx="237.9189" cy="-378" rx="118.1197" ry="18"/>
<text text-anchor="middle" x="237.9189" y="-373.8" font-family="Times,serif" font-size="14.00" fill="#000000">bebop2_state_estimator_lpf</text>
</g>
<!-- apriltag_ros&#45;&gt;bebop2_state_estimator_lpf -->
<g id="edge3" class="edge">
<title>apriltag_ros-&gt;bebop2_state_estimator_lpf</title>
<path fill="none" stroke="#000000" d="M214.7415,-431.8314C218.1299,-423.9617 222.173,-414.5712 225.9266,-405.8533"/>
<polygon fill="#000000" stroke="#000000" points="229.2511,-406.9822 229.991,-396.4133 222.8217,-404.214 229.2511,-406.9822"/>
</g>
<!-- ekf_localization_node -->
<g id="node5" class="node">
<title>ekf_localization_node</title>
<ellipse fill="none" stroke="#000000" cx="237.9189" cy="-306" rx="96.6926" ry="18"/>
<text text-anchor="middle" x="237.9189" y="-301.8" font-family="Times,serif" font-size="14.00" fill="#000000">ekf_localization_node</text>
</g>
<!-- bebop2_state_estimator_lpf&#45;&gt;ekf_localization_node -->
<g id="edge4" class="edge">
<title>bebop2_state_estimator_lpf-&gt;ekf_localization_node</title>
<path fill="none" stroke="#000000" d="M237.9189,-359.8314C237.9189,-352.131 237.9189,-342.9743 237.9189,-334.4166"/>
<polygon fill="#000000" stroke="#000000" points="241.419,-334.4132 237.9189,-324.4133 234.419,-334.4133 241.419,-334.4132"/>
</g>
<!-- ekf_localization_node&#45;&gt;bebop2_controller -->
<g id="edge5" class="edge">
<title>ekf_localization_node-&gt;bebop2_controller</title>
<path fill="none" stroke="#000000" d="M193.1426,-290.0133C176.1518,-281.5044 158.5825,-269.1666 148.9189,-252 125.2879,-210.0215 133.2784,-151.6964 141.155,-117.6904"/>
<polygon fill="#000000" stroke="#000000" points="144.5576,-118.5104 143.5607,-107.9626 137.7623,-116.8299 144.5576,-118.5104"/>
</g>
<!-- p2p_navigation_server -->
<g id="node8" class="node">
<title>p2p_navigation_server</title>
<ellipse fill="none" stroke="#000000" cx="257.9189" cy="-234" rx="99.5655" ry="18"/>
<text text-anchor="middle" x="257.9189" y="-229.8" font-family="Times,serif" font-size="14.00" fill="#000000">p2p_navigation_server</text>
</g>
<!-- ekf_localization_node&#45;&gt;p2p_navigation_server -->
<g id="edge8" class="edge">
<title>ekf_localization_node-&gt;p2p_navigation_server</title>
<path fill="none" stroke="#000000" d="M242.9658,-287.8314C245.1283,-280.0463 247.7042,-270.7729 250.1037,-262.1347"/>
<polygon fill="#000000" stroke="#000000" points="253.4999,-262.9852 252.8041,-252.4133 246.7553,-261.1117 253.4999,-262.9852"/>
</g>
<!-- joystick_controller -->
<g id="node6" class="node">
<title>joystick_controller</title>
<ellipse fill="none" stroke="#000000" cx="513.9189" cy="-162" rx="83.9663" ry="18"/>
<text text-anchor="middle" x="513.9189" y="-157.8" font-family="Times,serif" font-size="14.00" fill="#000000">joystick_controller</text>
</g>
<!-- joystick_controller&#45;&gt;bebop2_controller -->
<g id="edge6" class="edge">
<title>joystick_controller-&gt;bebop2_controller</title>
<path fill="none" stroke="#000000" d="M452.0017,-149.7862C387.7731,-137.1164 287.4774,-117.3321 220.0386,-104.0291"/>
<polygon fill="#000000" stroke="#000000" points="220.4101,-100.535 209.9218,-102.0334 219.0554,-107.4027 220.4101,-100.535"/>
</g>
<!-- waypoint_control_server -->
<g id="node7" class="node">
<title>waypoint_control_server</title>
<ellipse fill="none" stroke="#000000" cx="303.9189" cy="-162" rx="107.6482" ry="18"/>
<text text-anchor="middle" x="303.9189" y="-157.8" font-family="Times,serif" font-size="14.00" fill="#000000">waypoint_control_server</text>
</g>
<!-- waypoint_control_server&#45;&gt;bebop2_controller -->
<g id="edge7" class="edge">
<title>waypoint_control_server-&gt;bebop2_controller</title>
<path fill="none" stroke="#000000" d="M267.1861,-144.937C245.0765,-134.6667 216.7785,-121.5218 193.4067,-110.6653"/>
<polygon fill="#000000" stroke="#000000" points="194.5998,-107.3604 184.056,-106.3217 191.6508,-113.7089 194.5998,-107.3604"/>
</g>
<!-- p2p_navigation_server&#45;&gt;bebop2_controller -->
<g id="edge10" class="edge">
<title>p2p_navigation_server-&gt;bebop2_controller</title>
<path fill="none" stroke="#000000" d="M228.3894,-216.6651C214.3548,-207.2501 198.2186,-194.5582 186.9189,-180 172.5287,-161.46 162.5927,-136.6675 156.5,-117.7986"/>
<polygon fill="#000000" stroke="#000000" points="159.7762,-116.5433 153.5067,-108.0026 153.0818,-118.5889 159.7762,-116.5433"/>
</g>
<!-- p2p_navigation_server&#45;&gt;waypoint_control_server -->
<g id="edge9" class="edge">
<title>p2p_navigation_server-&gt;waypoint_control_server</title>
<path fill="none" stroke="#000000" d="M269.5267,-215.8314C274.7965,-207.5829 281.1339,-197.6635 286.925,-188.5992"/>
<polygon fill="#000000" stroke="#000000" points="290.0398,-190.2248 292.4743,-179.9134 284.1409,-186.456 290.0398,-190.2248"/>
</g>
</g>
</svg>